name analog
datacolumns 19
datarows 35
range 0.5515 0.5685
endheader
time	ground_force_vx	ground_force_vy	ground_force_vz	ground_force_px	ground_force_py	ground_force_pz	l_ground_force_vx	l_ground_force_vy	l_ground_force_vz	l_ground_force_px	l_ground_force_py	l_ground_force_pz	ground_torque_x	ground_torque_y	ground_torque_z	l_ground_torque_x	l_ground_torque_y	l_ground_torque_z
0.5515	-0.0	-0.0	-0.0	0.5719344615936279	3.643954038619995	-661.8592529296875	-10.034372329711914	-10.935794830322266	-98.00840759277344	-34.773101806640625	16.14175033569336	75.9694595336914	-0.0	-0.0	-0.0	43282.46484375	14827.5029296875	-6403.17333984375
0.552	-0.0	-0.0	-0.0	0.9655985236167908	3.628138065338135	-663.3757934570312	-10.27443504333496	-10.68692398071289	-98.70685577392578	-34.624942779541016	16.104564666748047	76.65291595458984	-0.0	-0.0	-0.0	43083.12109375	15002.255859375	-6471.4267578125
0.5525	-0.0	-0.0	-0.0	0.8028945922851562	3.622491836547852	-664.7883911132812	-10.191461563110352	-10.879364013671877	-97.6815414428711	-34.77317810058594	16.363452911376953	76.25926971435547	-0.0	-0.0	-0.0	42821.2578125	14928.337890625	-6569.201171875
0.553	-0.0	-0.0	-0.0	1.112117886543274	3.51294207572937	-666.243408203125	-10.405272483825684	-10.499947547912598	-97.5160675048828	-35.019466400146484	15.898343086242676	75.90818786621094	-0.0	-0.0	-0.0	42893.2109375	14526.3232421875	-6553.6181640625
0.5535	-0.0	-0.0	-0.0	0.8921051025390625	3.7389769554138175	-667.1997680664062	-10.379161834716797	-10.634987831115724	-97.35182189941406	-34.97826385498047	16.38951873779297	76.9022445678711	-0.0	-0.0	-0.0	42663.625	14667.9609375	-6464.623046875
0.554	-0.0	-0.0	-0.0	1.1184747219085691	3.869595527648926	-669.92236328125	-10.222891807556152	-10.5208101272583	-96.96163940429688	-34.72469711303711	16.295825958251953	75.4547119140625	-0.0	-0.0	-0.0	42400.8046875	14419.7509765625	-6410.302734375
0.5545	-0.0	-0.0	-0.0	1.438408136367798	3.702440023422241	-670.3512573242188	-10.253755569458008	-10.16160488128662	-96.65470123291016	-34.64645767211914	15.800345420837402	75.6014404296875	-0.0	-0.0	-0.0	42276.05859375	14260.40625	-6413.73193359375
0.555	-0.0	-0.0	-0.0	1.0073474645614624	3.821502208709717	-671.39501953125	-9.924844741821287	-10.380936622619627	-96.96188354492188	-35.31009292602539	15.86080837249756	76.46266174316406	-0.0	-0.0	-0.0	41791.00390625	14600.60546875	-6450.390625
0.5555	-0.0	-0.0	-0.0	1.059298038482666	4.215099811553955	-669.6876220703125	-9.909662246704102	-10.245315551757812	-95.07135772705078	-35.093685150146484	16.270015716552734	75.35284423828125	-0.0	-0.0	-0.0	41518.05859375	14525.7783203125	-6433.03173828125
0.556	-0.0	-0.0	-0.0	1.1370545625686646	3.92500901222229	-671.6903686523438	-10.275530815124512	-10.44383716583252	-93.32544708251952	-35.053466796875	16.052412033081055	74.65109252929688	-0.0	-0.0	-0.0	41384.6328125	14296.6337890625	-6354.39111328125
0.5565	-0.0	-0.0	-0.0	1.6659826040267944	4.059596538543701	-670.73388671875	-9.946675300598145	-10.131226539611816	-93.36890411376952	-34.88880157470703	16.386295318603516	75.40859985351562	-0.0	-0.0	-0.0	41095.1328125	14033.734375	-6256.40478515625
0.557	-0.0	-0.0	-0.0	1.8590627908706665	3.832607269287109	-670.4268798828125	-9.898584365844728	-10.02068042755127	-93.02005004882812	-34.737876892089844	15.950636863708496	75.3532485961914	-0.0	-0.0	-0.0	40728.5390625	13961.1611328125	-6297.1962890625
0.5575	-0.0	-0.0	-0.0	2.14105224609375	4.099998474121094	-670.2432861328125	-9.99528980255127	-9.883995056152344	-91.9284439086914	-35.05574035644531	16.182485580444336	76.2579345703125	-0.0	-0.0	-0.0	40288.23046875	13887.845703125	-6171.1103515625
0.558	-0.0	-0.0	-0.0	2.251344680786133	3.7809982299804688	-672.092041015625	-9.643695831298828	-9.906373977661133	-91.82687377929688	-35.09352493286133	15.91251277923584	75.15774536132812	-0.0	-0.0	-0.0	40231.84375	13601.556640625	-6069.45947265625
0.5585	-0.0	-0.0	-0.0	2.103421926498413	3.94750452041626	-669.4801635742188	-9.188694953918455	-9.71538543701172	-89.87847900390625	-34.91456985473633	16.13047981262207	75.90675354003906	-0.0	-0.0	-0.0	39589.57421875	13568.0009765625	-5937.04248046875
0.559	-0.0	-0.0	-0.0	1.821915984153748	3.7554194927215576	-670.5867919921875	-9.174511909484863	-9.689793586730955	-90.02558898925781	-34.92799377441406	16.194534301757812	74.80561065673828	-0.0	-0.0	-0.0	39530.82421875	13525.8095703125	-5912.13037109375
0.5595	-0.0	-0.0	-0.0	2.113581657409668	3.997145175933838	-670.5936279296875	-9.14885425567627	-9.57591152191162	-89.52974700927734	-34.82505416870117	16.31035804748535	75.60395812988281	-0.0	-0.0	-0.0	38968.26171875	13386.318359375	-5767.65625
0.56	-0.0	-0.0	-0.0	1.6450726985931396	3.808400869369507	-671.1973876953125	-8.845426559448242	-9.511073112487791	-88.87801361083984	-34.76122283935547	16.24616813659668	77.15760803222656	-0.0	-0.0	-0.0	38774.8828125	13021.7080078125	-5573.037109375
0.5605	-0.0	-0.0	-0.0	2.0640687942504883	3.870461463928223	-671.593505859375	-8.504366874694824	-9.159954071044922	-86.38796997070312	-34.67169570922852	16.066152572631836	76.60812377929688	-0.0	-0.0	-0.0	38282.796875	13080.005859375	-5437.521484375
0.561	-0.0	-0.0	-0.0	1.3134950399398804	3.7567598819732666	-672.1502075195312	-8.502628326416016	-9.008811950683594	-87.23434448242188	-34.88880157470703	16.181795120239258	75.85535430908203	-0.0	-0.0	-0.0	38076.96875	12790.640625	-5449.41162109375
0.5615	-0.0	-0.0	-0.0	2.345069169998169	3.641935110092163	-674.3218383789062	-7.970484256744385	-8.957937240600586	-85.34102630615234	-34.81215286254883	16.233078002929688	75.70536041259766	-0.0	-0.0	-0.0	37496.5859375	12686.447265625	-5186.57373046875
0.562	-0.0	-0.0	-0.0	2.549010992050171	3.718428373336792	-674.2701416015625	-7.793212413787842	-8.770402908325195	-84.94425201416016	-34.76094436645508	16.232938766479492	75.8056640625	-0.0	-0.0	-0.0	37193.95703125	12737.5673828125	-5173.77294921875
0.5625	-0.0	-0.0	-0.0	2.536063432693481	3.781611680984497	-675.3309936523438	-7.742413520812988	-8.579437255859375	-85.34162139892578	-34.93978500366211	16.104564666748047	75.6037826538086	-0.0	-0.0	-0.0	36731.45703125	12632.189453125	-4987.13525390625
0.5630000000000001	-0.0	-0.0	-0.0	2.803793907165528	3.947210550308228	-679.0638427734375	-8.008694648742676	-8.567203521728516	-84.14553833007812	-34.65895080566406	16.27202606201172	76.45890045166016	-0.0	-0.0	-0.0	36616.81640625	12351.62109375	-4953.25634765625
0.5635	-0.0	-0.0	-0.0	3.0203208923339844	3.705431461334229	-679.1650390625	-7.565828800201416	-8.365720748901367	-82.79802703857422	-34.87562942504883	16.143386840820312	76.25997924804688	-0.0	-0.0	-0.0	36481.91015625	12226.3486328125	-4978.3955078125
0.5640000000000001	-0.0	-0.0	-0.0	3.479209899902344	3.628948926925659	-681.8898315429688	-7.591166019439697	-8.377828598022461	-82.25037384033203	-34.93958282470703	15.885726928710938	75.2080078125	-0.0	-0.0	-0.0	36237.03515625	12315.82421875	-4863.94384765625
0.5645	-0.0	-0.0	-0.0	3.912873506546021	3.603592395782471	-684.4651489257812	-7.223576068878174	-8.163488388061523	-80.45467376708984	-34.72190856933594	15.938050270080566	74.95186614990234	-0.0	-0.0	-0.0	35959.8359375	12352.3876953125	-4812.78515625
0.5650000000000001	-0.0	-0.0	-0.0	4.027596950531006	3.641234397888184	-686.0242919921875	-7.565733432769775	-8.087684631347656	-81.70147705078125	-35.18251037597656	16.2454891204834	75.4547119140625	-0.0	-0.0	-0.0	35154.83203125	11959.8798828125	-4774.8115234375
0.5655	-0.0	-0.0	-0.0	3.950587034225464	3.934962749481201	-687.2357177734375	-7.261411666870117	-7.999288558959961	-80.90367889404297	-34.98011779785156	16.11821746826172	75.6072006225586	-0.0	-0.0	-0.0	35234.46484375	12134.494140625	-4757.74658203125
0.5660000000000001	-0.0	-0.0	-0.0	4.280798435211182	4.099998474121094	-688.5480346679688	-7.185573577880859	-7.974717140197754	-78.50818634033203	-34.88880157470703	16.00087547302246	75.60737609863281	-0.0	-0.0	-0.0	35042.56640625	11705.8701171875	-4821.15625
0.5665	-0.0	-0.0	-0.0	4.357897758483887	3.755313634872437	-690.2136840820312	-7.337775707244873	-7.961946487426758	-78.75763702392578	-34.83833312988281	16.259124755859375	75.7967300415039	-0.0	-0.0	-0.0	34759.8359375	11846.9609375	-4757.8515625
0.5670000000000001	-0.0	-0.0	-0.0	4.4586920738220215	4.150406837463379	-691.3801879882812	-7.362995147705078	-8.126736640930176	-79.3092269897461	-34.78547668457031	16.27311134338379	75.50911712646484	-0.0	-0.0	-0.0	34410.05859375	11796.142578125	-4851.34326171875
0.5675	-0.0	-0.0	-0.0	4.357704639434815	4.061223030090332	-691.3187866210938	-7.577483654022217	-7.632569313049316	-78.61123657226562	-34.953094482421875	15.975252151489258	75.4547119140625	-0.0	-0.0	-0.0	34127.984375	11725.96875	-4736.75048828125
0.5680000000000001	-0.0	-0.0	-0.0	4.538296699523926	4.010868072509766	-692.8847045898438	-6.944559574127197	-7.835622310638428	-78.35511779785156	-34.97826385498047	16.503862380981445	75.41128540039062	-0.0	-0.0	-0.0	34073.0390625	11628.1337890625	-4689.38134765625
0.5685	-0.0	-0.0	-0.0	4.40772819519043	3.935561656951904	-693.09326171875	-7.044844627380371	-7.45555305480957	-78.01253509521484	-35.14625930786133	16.270246505737305	75.49754333496094	-0.0	-0.0	-0.0	33967.125	11597.296875	-4800.20849609375
